
<?xml version="1.0" encoding="iso-8859-1"?>
<!-- Uploaded to: SVG Repo, www.svgrepo.com, Generator: SVG Repo Mixer Tools -->
<svg fill="#000000" height="800px" width="800px" version="1.1" id="Layer_1" xmlns="http://www.w3.org/2000/svg" xmlns:xlink="http://www.w3.org/1999/xlink"
    viewBox="0 0 481.882 481.882" xml:space="preserve">
<g>
	<g>
		<path d="M474.353,125.515c-10.831,0-19.632-24.776-19.632-55.228s8.801-55.228,19.632-55.228c4.161,0,7.529-3.371,7.529-7.529
			c0-4.158-3.368-7.529-7.529-7.529H67.327C32.908,0,3.47,27.827,0.309,63.346c-1.867,20.971,4.879,41.544,18.511,56.445
			c12.265,13.401,28.585,20.783,45.956,20.783h409.577c4.161,0,7.529-3.372,7.529-7.529
			C481.882,128.886,478.514,125.515,474.353,125.515z M423.691,115.015H59.677V99.956h364.015V115.015z M423.691,77.816H59.677
			V62.758h364.015V77.816z M423.691,40.614H59.677V25.556h364.015V40.614z"/>
	</g>
</g>
    <g>
	<g>
		<path d="M474.353,466.823c-10.831,0-19.632-24.776-19.632-55.227c0-30.456,8.801-55.232,19.632-55.232
			c4.161,0,7.529-3.371,7.529-7.529c0-4.158-3.368-7.529-7.529-7.529H67.327c-34.419,0-63.857,27.827-67.018,63.346
			c-1.867,20.975,4.883,41.548,18.515,56.449c12.261,13.401,28.581,20.783,45.952,20.783h409.577c4.161,0,7.529-3.371,7.529-7.529
			C481.882,470.195,478.514,466.823,474.353,466.823z M423.691,456.324H59.677v-15.059h364.015V456.324z M423.691,419.122H59.677
			v-15.059h364.015V419.122z M423.691,381.923H59.677v-15.059h364.015V381.923z"/>
	</g>
</g>
    <g>
	<g>
		<path d="M481.574,234.001c-3.162-35.522-32.603-63.346-67.022-63.346H7.529c-4.158,0-7.529,3.371-7.529,7.529
			c0,4.158,3.372,7.529,7.529,7.529c10.827,0,19.632,24.776,19.632,55.227c0,30.453-8.805,55.228-19.632,55.228
			c-4.158,0-7.529,3.372-7.529,7.529c0,4.159,3.372,7.529,7.529,7.529h409.574c17.375,0,33.699-7.383,45.956-20.783
			C476.691,275.545,483.441,254.971,481.574,234.001z M422.206,285.67H58.191v-15.059h364.015V285.67z M422.206,248.471H58.191
			v-15.059h364.015V248.471z M422.206,211.272H58.191v-15.059h364.015V211.272z"/>
	</g>
</g>
</svg>